# xmcd
#
# Track frame offsets: 
#        150
#        13522
#        24964
#        39482
#        50104
#        65369
#        79077
#        91887
#        102040
#        119106
#        129808
#
# Disc length: 1895 seconds
#
# Revision: 0
# Processed by: cddbd v1.4PL0 Copyright (c) Steve Scherf et al.
# Submitted via: ExactAudioCopy v0.95a3
#
DISCID=8307650b
DTITLE=Cody Dooley - Real Country
DYEAR=2003
DGENRE=Country
TTITLE0=Big City
TTITLE1=Hello Darlin'
TTITLE2=Don't Worry
TTITLE3=Louisiana Saturday Night
TTITLE4=Rose Colored Glasses
TTITLE5=Statue of a Fool
TTITLE6=Amarillo by Morning
TTITLE7=Abilene
TTITLE8=For the Good Times
TTITLE9=He'll Have to Go
TTITLE10=Can't Help Falling in Love
EXTD=
EXTT0=
EXTT1=
EXTT2=
EXTT3=
EXTT4=
EXTT5=
EXTT6=
EXTT7=
EXTT8=
EXTT9=
EXTT10=
PLAYORDER=
